<svg xmlns="http://www.w3.org/2000/svg" viewBox="0 0 512 512">
  <!-- 背景渐变 -->
  <defs>
    <linearGradient id="bgGrad" x1="0%" y1="0%" x2="100%" y2="100%">
      <stop offset="0%" style="stop-color:#1a3a52;stop-opacity:1" />
      <stop offset="100%" style="stop-color:#2d5a7b;stop-opacity:1" />
    </linearGradient>
    <linearGradient id="chartGrad" x1="0%" y1="100%" x2="0%" y2="0%">
      <stop offset="0%" style="stop-color:#fd7e14;stop-opacity:0.8" />
      <stop offset="100%" style="stop-color:#ffa94d;stop-opacity:1" />
    </linearGradient>
  </defs>
  
  <!-- 圆角矩形背景 -->
  <rect width="512" height="512" rx="115" fill="url(#bgGrad)"/>
  
  <!-- 酒店建筑图标 -->
  <g transform="translate(256, 140)">
    <!-- 建筑主体 -->
    <rect x="-80" y="-60" width="160" height="140" fill="#ffffff" opacity="0.95" rx="8"/>
    
    <!-- 窗户网格 -->
    <g fill="#1a3a52" opacity="0.3">
      <rect x="-60" y="-40" width="25" height="20" rx="2"/>
      <rect x="-25" y="-40" width="25" height="20" rx="2"/>
      <rect x="10" y="-40" width="25" height="20" rx="2"/>
      <rect x="45" y="-40" width="25" height="20" rx="2"/>
      
      <rect x="-60" y="-10" width="25" height="20" rx="2"/>
      <rect x="-25" y="-10" width="25" height="20" rx="2"/>
      <rect x="10" y="-10" width="25" height="20" rx="2"/>
      <rect x="45" y="-10" width="25" height="20" rx="2"/>
      
      <rect x="-60" y="20" width="25" height="20" rx="2"/>
      <rect x="-25" y="20" width="25" height="20" rx="2"/>
      <rect x="10" y="20" width="25" height="20" rx="2"/>
      <rect x="45" y="20" width="25" height="20" rx="2"/>
    </g>
    
    <!-- 入口 -->
    <rect x="-20" y="50" width="40" height="30" fill="#fd7e14" rx="3"/>
    
    <!-- 顶部标志 -->
    <circle cx="0" cy="-70" r="12" fill="#fd7e14"/>
    <text x="0" y="-64" font-family="Arial, sans-serif" font-size="16" font-weight="bold" fill="#ffffff" text-anchor="middle">H</text>
  </g>
  
  <!-- 图表元素 -->
  <g transform="translate(256, 340)">
    <!-- 图表背景 -->
    <rect x="-100" y="-80" width="200" height="120" fill="#ffffff" opacity="0.95" rx="12"/>
    
    <!-- 柱状图 -->
    <g fill="url(#chartGrad)">
      <rect x="-80" y="-20" width="20" height="50" rx="2"/>
      <rect x="-50" y="-35" width="20" height="65" rx="2"/>
      <rect x="-20" y="-50" width="20" height="80" rx="2"/>
      <rect x="10" y="-40" width="20" height="70" rx="2"/>
      <rect x="40" y="-55" width="20" height="85" rx="2"/>
      <rect x="70" y="-45" width="20" height="75" rx="2"/>
    </g>
    
    <!-- 趋势线 -->
    <path d="M -80 -10 L -50 -25 L -20 -40 L 10 -30 L 40 -45 L 70 -35" 
          stroke="#1a3a52" stroke-width="3" fill="none" stroke-linecap="round" stroke-linejoin="round"/>
    
    <!-- 数据点 -->
    <g fill="#1a3a52">
      <circle cx="-80" cy="-10" r="4"/>
      <circle cx="-50" cy="-25" r="4"/>
      <circle cx="-20" cy="-40" r="4"/>
      <circle cx="10" cy="-30" r="4"/>
      <circle cx="40" cy="-45" r="4"/>
      <circle cx="70" cy="-35" r="4"/>
    </g>
    
    <!-- 基准线 -->
    <line x1="-90" y1="30" x2="90" y2="30" stroke="#1a3a52" stroke-width="2" opacity="0.3"/>
  </g>
  
  <!-- 装饰性元素 - 会议标记 -->
  <g transform="translate(420, 100)">
    <circle cx="0" cy="0" r="35" fill="#fd7e14"/>
    <text x="0" y="8" font-family="Noto Sans JP, sans-serif" font-size="24" font-weight="bold" fill="#ffffff" text-anchor="middle">会</text>
  </g>
</svg>
